Band: Apocalyptica
Titolo album: Inquisition Symphony
Uscita Album: 1998
Genere:Cello Metal
Etichetta: Mercury/Universal
N° Dischi:1
Tracce: 11
Formato: Flac
Durata: 46 min : 41 s
Fonte: Cd Originale



1. Harmageddon (Eicca Toppinen) - 4:56
2. From Out of Nowhere (Faith No More) - 3:10
3. For Whom the Bell Tolls (Hetfield/Ulrich/Burton) - 3:09
4. Nothing Else Matters (Hetfield/Ulrich) - 4:45
5. Refuse/Resist (Max Cavalera/Igor Cavalera/Andreas Kisser/Paulo Xisto Pinto) - 3:12
6. M.B (Eicca Toppinen) - 3:58
7. Inquisition symphony (Max Cavalera/Igor Cavalera/Andreas Kisser/Paulo XistoPinto) - 4:57
8. Fade To Black (Hetfield/Ulrich/Burton/Hammett) - 5:00
9. Domination (Pantera) - 3:30
10. Toreador (Eicca Toppinen) - 4:20
11. One (Hetfield/Ulrich) - 5:44


	EAC	
		
	
		
	Exact Audio Copy V0.99 prebeta 5 from 4. May 2009

EAC extraction logfile from 2. September 2010, 20:27

Apocalyptica / Inquisition Symphony

Used drive : _NEC DVD_RW ND-4551A Adapter: 2 ID: 2

Read mode : Secure
Utilize accurate stream : Yes
Defeat audio cache : Yes
Make use of C2 pointers : No

Read offset correction : 48
Overread into Lead-In and Lead-Out : No
Fill up missing offset samples with silence : Yes
Delete leading and trailing silent blocks : No
Null samples used in CRC calculations : Yes
Used interface : Native Win32 interface for Win NT & 2000
Gap handling : Appended to previous track

Used output format : User Defined Encoder
Selected bitrate : 768 kBit/s
Quality : High
Add ID3 tag : No
Command line compressor : C:\\Programmi\\Exact Audio Copy\\FLAC\\FLAC.EXE
Additional command line options : -8 -V -T \"artist=%a\" -T \"title=%t\" -T \"album=%g\" -T \"date=%y\" -T \"tracknumber=%n\" -T \"genre=%m\" %s


TOC of the extracted CD

Track | Start | Length | Start sector | End sector
---------------------------------------------------------
1 | 0:00.00 | 4:56.15 | 0 | 22214
2 | 4:56.15 | 3:10.72 | 22215 | 36536
3 | 8:07.12 | 3:11.30 | 36537 | 50891
4 | 11:18.42 | 4:45.40 | 50892 | 72306
5 | 16:04.07 | 3:13.08 | 72307 | 86789
6 | 19:17.15 | 3:58.60 | 86790 | 104699
7 | 23:16.00 | 4:57.15 | 104700 | 126989
8 | 28:13.15 | 5:00.70 | 126990 | 149559
9 | 33:14.10 | 3:31.30 | 149560 | 165414
10 | 36:45.40 | 4:22.15 | 165415 | 185079
11 | 41:07.55 | 5:44.35 | 185080 | 210914


Track 1

Filename G:\\Musica\\01 - Harmageddon.wav

Pre-gap length 0:00:02.00

Peak level 97.3 %
Track quality 99.9 %
Copy CRC 5FAD73F2
Accurately ripped (confidence 82) [7F247272]
Copy OK

Track 2

Filename G:\\Musica\\02 - From Out Of Nowhere.wav

Peak level 95.7 %
Track quality 100.0 %
Copy CRC 77423CFD
Accurately ripped (confidence 86) [C22F6CB9]
Copy OK

Track 3

Filename G:\\Musica\\03 - For Whom The Bell Tolls.wav

Peak level 97.3 %
Track quality 100.0 %
Copy CRC 216A536E
Accurately ripped (confidence 85) [83048CBB]
Copy OK

Track 4

Filename G:\\Musica\\04 - Nothing Else Matters.wav

Pre-gap length 0:00:02.41

Peak level 90.3 %
Track quality 100.0 %
Copy CRC 960641BD
Accurately ripped (confidence 85) [78A07BC3]
Copy OK

Track 5

Filename G:\\Musica\\05 - Refuse,Resist.wav

Pre-gap length 0:00:00.11

Peak level 95.7 %
Track quality 100.0 %
Copy CRC F3D52B73
Accurately ripped (confidence 84) [2BBA476F]
Copy OK

Track 6

Filename G:\\Musica\\06 - M. B..wav

Pre-gap length 0:00:01.19

Peak level 95.7 %
Track quality 100.0 %
Copy CRC 2F3BC5D1
Accurately ripped (confidence 85) [716DA43D]
Copy OK

Track 7

Filename G:\\Musica\\07 - Inquisition Symphony.wav

Peak level 95.7 %
Track quality 99.9 %
Copy CRC A3AC69F7
Accurately ripped (confidence 85) [E8E6C4FC]
Copy OK

Track 8

Filename G:\\Musica\\08 - Fade To Black.wav

Peak level 97.3 %
Track quality 100.0 %
Copy CRC 16A47EC3
Accurately ripped (confidence 85) [E077E122]
Copy OK

Track 9

Filename G:\\Musica\\09 - Domination.wav

Peak level 98.4 %
Track quality 100.0 %
Copy CRC 2AA00896
Accurately ripped (confidence 85) [AF4B7E29]
Copy OK

Track 10

Filename G:\\Musica\\10 - Toreador.wav

Pre-gap length 0:00:01.39

Peak level 97.3 %
Track quality 100.0 %
Copy CRC 8CB6C0A4
Accurately ripped (confidence 85) [154D00C4]
Copy OK

Track 11

Filename G:\\Musica\\11 - One.wav

Pre-gap length 0:00:01.50

Peak level 98.4 %
Track quality 100.0 %
Copy CRC 622B3337
Accurately ripped (confidence 85) [D55D68C1]
Copy OK


All tracks accurately ripped

No errors occurred

End of status report